  0
SECTION
  2
HEADER
  9
$ACADVER
  1
AC1014
  9
$HANDSEED
  5
FFFF
  9
$MEASUREMENT
 70
     1
  0
ENDSEC
  0
SECTION
  2
TABLES
  0
TABLE
  2
VPORT
  5
8
330
0
100
AcDbSymbolTable
 70
     4
  0
VPORT
  5
2E
330
8
100
AcDbSymbolTableRecord
100
AcDbViewportTableRecord
  2
*ACTIVE
 70
     0
 10
0.0
 20
0.0
 11
1.0
 21
1.0
 12
210.0
 22
148.5
 13
0.0
 23
0.0
 14
10.0
 24
10.0
 15
10.0
 25
10.0
 16
0.0
 26
0.0
 36
1.0
 17
0.0
 27
0.0
 37
0.0
 40
341.0
 41
1.24
 42
50.0
 43
0.0
 44
0.0
 50
0.0
 51
0.0
 71
     0
 72
   100
 73
     1
 74
     3
 75
     0
 76
     0
 77
     0
 78
     0
  0
ENDTAB
  0
TABLE
  2
LTYPE
  5
5
330
0
100
AcDbSymbolTable
 70
     1
  0
LTYPE
  5
14
330
5
100
AcDbSymbolTableRecord
100
AcDbLinetypeTableRecord
  2
BYBLOCK
 70
     0
  3

 72
    65
 73
     0
 40
0.0
  0
LTYPE
  5
15
330
5
100
AcDbSymbolTableRecord
100
AcDbLinetypeTableRecord
  2
BYLAYER
 70
     0
  3

 72
    65
 73
     0
 40
0.0
  0
LTYPE
  5
16
330
5
100
AcDbSymbolTableRecord
100
AcDbLinetypeTableRecord
  2
CONTINUOUS
 70
     0
  3
Solid line
 72
    65
 73
     0
 40
0.0
  0
ENDTAB
  0
TABLE
  2
LAYER
  5
2
100
AcDbSymbolTable
 70
5
  0
LAYER
  5
50
100
AcDbSymbolTableRecord
100
AcDbLayerTableRecord
  2
0
 70
0
  6
CONTINUOUS
  0
LAYER
  5
51
100
AcDbSymbolTableRecord
100
AcDbLayerTableRecord
  2
mfos_vco_VI_panel_2
 70
0
  6
CONTINUOUS
  0
LAYER
  5
52
100
AcDbSymbolTableRecord
100
AcDbLayerTableRecord
  2
holes
 70
0
  6
CONTINUOUS
  0
LAYER
  5
53
100
AcDbSymbolTableRecord
100
AcDbLayerTableRecord
  2
text
 70
0
  6
CONTINUOUS
  0
LAYER
  5
54
100
AcDbSymbolTableRecord
100
AcDbLayerTableRecord
  2
overlay#1
 70
0
  6
CONTINUOUS
  0
ENDTAB
  0
TABLE
  2
STYLE
  5
3
330
0
100
AcDbSymbolTable
 70
     1
  0
STYLE
  5
11
330
3
100
AcDbSymbolTableRecord
100
AcDbTextStyleTableRecord
  2
STANDARD
 70
     0
 40
0.0
 41
1.0
 50
0.0
 71
     0
 42
2.5
  3
txt
  4

  0
ENDTAB
  0
TABLE
  2
VIEW
  5
6
330
0
100
AcDbSymbolTable
 70
     0
  0
ENDTAB
  0
TABLE
  2
UCS
  5
7
330
0
100
AcDbSymbolTable
 70
     0
  0
ENDTAB
  0
TABLE
  2
APPID
  5
9
330
0
100
AcDbSymbolTable
 70
     2
  0
APPID
  5
12
330
9
100
AcDbSymbolTableRecord
100
AcDbRegAppTableRecord
  2
ACAD
 70
     0
  0
ENDTAB
  0
TABLE
  2
DIMSTYLE
  5
A
330
0
100
AcDbSymbolTable
 70
     1
  0
DIMSTYLE
105
27
330
A
100
AcDbSymbolTableRecord
100
AcDbDimStyleTableRecord
  2
ISO-25
 70
     0
  3

  4

  5

  6

  7

 40
1.0
 41
2.5
 42
0.625
 43
3.75
 44
1.25
 45
0.0
 46
0.0
 47
0.0
 48
0.0
140
2.5
141
2.5
142
0.0
143
0.03937007874016
144
1.0
145
0.0
146
1.0
147
0.625
 71
     0
 72
     0
 73
     0
 74
     0
 75
     0
 76
     0
 77
     1
 78
     8
170
     0
171
     3
172
     1
173
     0
174
     0
175
     0
176
     0
177
     0
178
     0
270
     2
271
     2
272
     2
273
     2
274
     3
340
11
275
     0
280
     0
281
     0
282
     0
283
     0
284
     8
285
     0
286
     0
287
     3
288
     0
  0
ENDTAB
  0
TABLE
  2
BLOCK_RECORD
  5
1
330
0
100
AcDbSymbolTable
 70
     1
  0
BLOCK_RECORD
  5
1F
330
1
100
AcDbSymbolTableRecord
100
AcDbBlockTableRecord
  2
*MODEL_SPACE
  0
BLOCK_RECORD
  5
1B
330
1
100
AcDbSymbolTableRecord
100
AcDbBlockTableRecord
  2
*PAPER_SPACE
  0
ENDTAB
  0
ENDSEC
  0
SECTION
  2
BLOCKS
  0
BLOCK
  5
20
330
1F
100
AcDbEntity
  8
0
100
AcDbBlockBegin
  2
*MODEL_SPACE
 70
     0
 10
0.0
 20
0.0
 30
0.0
  3
*MODEL_SPACE
  1

  0
ENDBLK
  5
21
330
1F
100
AcDbEntity
  8
0
100
AcDbBlockEnd
  0
BLOCK
  5
1C
330
1B
100
AcDbEntity
 67
     1
  8
0
100
AcDbBlockBegin
  2
*PAPER_SPACE
  1

  0
ENDBLK
  5
1D
330
1B
100
AcDbEntity
 67
     1
  8
0
100
AcDbBlockEnd
  0
ENDSEC
  0
SECTION
  2
ENTITIES
  0
LINE
  5
100
100
AcDbEntity
  8
text
 62
5
100
AcDbLine
 10
0.072268
 20
10.767032
 30
0.0
 11
8.072621
 21
10.767032
 31
0.0
  0
LINE
  5
101
100
AcDbEntity
  8
text
 62
5
100
AcDbLine
 10
8.072621
 20
10.767032
 30
0.0
 11
8.072621
 21
0.247634
 31
0.0
  0
LINE
  5
102
100
AcDbEntity
  8
text
 62
5
100
AcDbLine
 10
8.072621
 20
0.247634
 30
0.0
 11
0.072268
 21
0.247634
 31
0.0
  0
LINE
  5
103
100
AcDbEntity
  8
text
 62
5
100
AcDbLine
 10
0.072268
 20
0.247634
 30
0.0
 11
0.072268
 21
10.767032
 31
0.0
  0
LINE
  5
104
100
AcDbEntity
  8
text
 62
1
100
AcDbLine
 10
1.446968
 20
5.546038
 30
0.0
 11
1.062991
 21
5.546038
 31
0.0
  0
LINE
  5
105
100
AcDbEntity
  8
text
 62
1
100
AcDbLine
 10
1.062991
 20
5.546038
 30
0.0
 11
1.062991
 21
10.601993
 31
0.0
  0
LINE
  5
106
100
AcDbEntity
  8
text
 62
1
100
AcDbLine
 10
1.062991
 20
10.601993
 30
0.0
 11
2.126268
 21
10.601993
 31
0.0
  0
LINE
  5
107
100
AcDbEntity
  8
text
 62
1
100
AcDbLine
 10
2.126268
 20
10.601993
 30
0.0
 11
2.126268
 21
5.546038
 31
0.0
  0
LINE
  5
108
100
AcDbEntity
  8
text
 62
1
100
AcDbLine
 10
2.126268
 20
5.546038
 30
0.0
 11
1.062991
 21
5.546038
 31
0.0
  0
LINE
  5
109
100
AcDbEntity
  8
text
 62
1
100
AcDbLine
 10
1.993281
 20
10.477043
 30
0.0
 11
1.993281
 21
10.477043
 31
0.0
  0
SPLINE
  5
10a
100
AcDbEntity
  8
text
 62
1
100
AcDbSpline
 70
0
 71
3
 72
19
 73
15
 74
13
 40
0.000000
 40
0.000000
 40
0.000000
 40
0.000000
 40
0.004968
 40
0.010009
 40
0.015421
 40
0.020828
 40
0.025852
 40
0.030816
 40
0.035784
 40
0.040812
 40
0.046220
 40
0.051633
 40
0.056679
 40
0.061650
 40
0.061650
 40
0.061650
 40
0.061650
 10
1.993281
 20
10.477043
 30
0.0
 10
1.992981
 20
10.475368
 30
0.0
 10
1.992378
 20
10.471993
 30
0.0
 10
1.988165
 20
10.468451
 30
0.0
 10
1.982877
 20
10.467179
 30
0.0
 10
1.977525
 20
10.468446
 30
0.0
 10
1.973515
 20
10.472000
 30
0.0
 10
1.971979
 20
10.477044
 30
0.0
 10
1.973516
 20
10.482089
 30
0.0
 10
1.977523
 20
10.485649
 30
0.0
 10
1.982877
 20
10.486922
 30
0.0
 10
1.988167
 20
10.485644
 30
0.0
 10
1.992378
 20
10.482096
 30
0.0
 10
1.992981
 20
10.478719
 30
0.0
 10
1.993281
 20
10.477043
 30
0.0
 11
1.993281
 21
10.477043
 31
0.0
 11
1.991858
 21
10.472283
 31
0.0
 11
1.988120
 21
10.468900
 31
0.0
 11
1.982864
 21
10.467612
 31
0.0
 11
1.977612
 21
10.468900
 31
0.0
 11
1.973898
 21
10.472283
 31
0.0
 11
1.972489
 21
10.477043
 31
0.0
 11
1.973898
 21
10.481806
 31
0.0
 11
1.977612
 21
10.485196
 31
0.0
 11
1.982864
 21
10.486487
 31
0.0
 11
1.988120
 21
10.485196
 31
0.0
 11
1.991858
 21
10.481806
 31
0.0
 11
1.993281
 21
10.477043
 31
0.0
  0
LINE
  5
10b
100
AcDbEntity
  8
text
 62
1
100
AcDbLine
 10
1.304831
 20
5.665662
 30
0.0
 11
1.304831
 21
5.665662
 31
0.0
  0
SPLINE
  5
10c
100
AcDbEntity
  8
text
 62
1
100
AcDbSpline
 70
0
 71
3
 72
19
 73
15
 74
13
 40
0.000000
 40
0.000000
 40
0.000000
 40
0.000000
 40
0.003531
 40
0.007403
 40
0.011798
 40
0.016178
 40
0.020063
 40
0.023598
 40
0.027124
 40
0.031006
 40
0.035387
 40
0.039781
 40
0.043651
 40
0.047173
 40
0.047173
 40
0.047173
 40
0.047173
 10
1.304831
 20
5.665662
 30
0.0
 10
1.304568
 20
5.664476
 30
0.0
 10
1.304017
 20
5.661989
 30
0.0
 10
1.300526
 20
5.659595
 30
0.0
 10
1.296333
 20
5.658740
 30
0.0
 10
1.292069
 20
5.659602
 30
0.0
 10
1.288755
 20
5.661985
 30
0.0
 10
1.287329
 20
5.665660
 30
0.0
 10
1.288756
 20
5.669332
 30
0.0
 10
1.292070
 20
5.671709
 30
0.0
 10
1.296333
 20
5.672571
 30
0.0
 10
1.300525
 20
5.671716
 30
0.0
 10
1.304015
 20
5.669328
 30
0.0
 10
1.304567
 20
5.666845
 30
0.0
 10
1.304831
 20
5.665662
 30
0.0
 11
1.304831
 21
5.665662
 31
0.0
 11
1.303670
 21
5.662328
 31
0.0
 11
1.300617
 21
5.659946
 31
0.0
 11
1.296317
 21
5.659037
 31
0.0
 11
1.292032
 21
5.659946
 31
0.0
 11
1.288963
 21
5.662328
 31
0.0
 11
1.287789
 21
5.665662
 31
0.0
 11
1.288963
 21
5.668987
 31
0.0
 11
1.292032
 21
5.671365
 31
0.0
 11
1.296317
 21
5.672273
 31
0.0
 11
1.300617
 21
5.671365
 31
0.0
 11
1.303670
 21
5.668987
 31
0.0
 11
1.304831
 21
5.665662
 31
0.0
  0
LINE
  5
10d
100
AcDbEntity
  8
text
 62
1
100
AcDbLine
 10
1.410374
 20
6.399128
 30
0.0
 11
1.503304
 21
6.399128
 31
0.0
  0
LINE
  5
10e
100
AcDbEntity
  8
text
 62
1
100
AcDbLine
 10
1.456860
 20
6.352641
 30
0.0
 11
1.456860
 21
6.445628
 31
0.0
  0
LINE
  5
10f
100
AcDbEntity
  8
text
 62
1
100
AcDbLine
 10
-2.662406
 20
9.997347
 30
0.0
 11
-2.837754
 21
9.681639
 31
0.0
  0
LINE
  5
110
100
AcDbEntity
  8
text
 62
1
100
AcDbLine
 10
-2.662406
 20
9.997347
 30
0.0
 11
-2.985101
 21
9.836000
 31
0.0
  0
LINE
  5
111
100
AcDbEntity
  8
text
 62
1
100
AcDbLine
 10
-2.662406
 20
9.997347
 30
0.0
 11
-3.020156
 21
10.039444
 31
0.0
  0
LINE
  5
112
100
AcDbEntity
  8
text
 62
1
100
AcDbLine
 10
-2.662406
 20
9.997347
 30
0.0
 11
-2.935948
 21
10.228847
 31
0.0
  0
LINE
  5
113
100
AcDbEntity
  8
text
 62
1
100
AcDbLine
 10
-2.662406
 20
9.997347
 30
0.0
 11
-2.760601
 21
10.341097
 31
0.0
  0
LINE
  5
114
100
AcDbEntity
  8
text
 62
1
100
AcDbLine
 10
-2.662406
 20
9.997347
 30
0.0
 11
-2.564156
 21
10.341097
 31
0.0
  0
LINE
  5
115
100
AcDbEntity
  8
text
 62
1
100
AcDbLine
 10
-2.662406
 20
9.997347
 30
0.0
 11
-2.388809
 21
10.228847
 31
0.0
  0
LINE
  5
116
100
AcDbEntity
  8
text
 62
1
100
AcDbLine
 10
-2.662406
 20
9.997347
 30
0.0
 11
-2.304601
 21
10.039444
 31
0.0
  0
LINE
  5
117
100
AcDbEntity
  8
text
 62
1
100
AcDbLine
 10
-2.662406
 20
9.997347
 30
0.0
 11
-2.339698
 21
9.836000
 31
0.0
  0
LINE
  5
118
100
AcDbEntity
  8
text
 62
1
100
AcDbLine
 10
-2.662406
 20
9.997347
 30
0.0
 11
-2.480004
 21
9.681639
 31
0.0
  0
LINE
  5
119
100
AcDbEntity
  8
text
 62
1
100
AcDbLine
 10
-2.662406
 20
9.997347
 30
0.0
 11
-2.816698
 21
9.723750
 31
0.0
  0
LINE
  5
11a
100
AcDbEntity
  8
text
 62
1
100
AcDbLine
 10
-2.662406
 20
9.997347
 30
0.0
 11
-2.858795
 21
9.744792
 31
0.0
  0
LINE
  5
11b
100
AcDbEntity
  8
text
 62
1
100
AcDbLine
 10
-2.662406
 20
9.997347
 30
0.0
 11
-2.893906
 21
9.779847
 31
0.0
  0
LINE
  5
11c
100
AcDbEntity
  8
text
 62
1
100
AcDbLine
 10
-2.662406
 20
9.997347
 30
0.0
 11
-2.921948
 21
9.814944
 31
0.0
  0
LINE
  5
11d
100
AcDbEntity
  8
text
 62
1
100
AcDbLine
 10
-2.662406
 20
9.997347
 30
0.0
 11
-2.950004
 21
9.857042
 31
0.0
  0
LINE
  5
11e
100
AcDbEntity
  8
text
 62
1
100
AcDbLine
 10
-2.662406
 20
9.997347
 30
0.0
 11
-2.964059
 21
9.899153
 31
0.0
  0
LINE
  5
11f
100
AcDbEntity
  8
text
 62
1
100
AcDbLine
 10
-2.662406
 20
9.997347
 30
0.0
 11
-2.978045
 21
9.948250
 31
0.0
  0
LINE
  5
120
100
AcDbEntity
  8
text
 62
1
100
AcDbLine
 10
-2.662406
 20
9.997347
 30
0.0
 11
-2.978045
 21
9.990292
 31
0.0
  0
LINE
  5
121
100
AcDbEntity
  8
text
 62
1
100
AcDbLine
 10
-2.662406
 20
9.997347
 30
0.0
 11
-2.978045
 21
10.032389
 31
0.0
  0
LINE
  5
122
100
AcDbEntity
  8
text
 62
1
100
AcDbLine
 10
-2.662406
 20
9.997347
 30
0.0
 11
-2.971045
 21
10.074500
 31
0.0
  0
LINE
  5
123
100
AcDbEntity
  8
text
 62
1
100
AcDbLine
 10
-2.662406
 20
9.997347
 30
0.0
 11
-2.957004
 21
10.123597
 31
0.0
  0
LINE
  5
124
100
AcDbEntity
  8
text
 62
1
100
AcDbLine
 10
-2.662406
 20
9.997347
 30
0.0
 11
-2.935948
 21
10.165694
 31
0.0
  0
LINE
  5
125
100
AcDbEntity
  8
text
 62
1
100
AcDbLine
 10
-2.662406
 20
9.997347
 30
0.0
 11
-2.907906
 21
10.200792
 31
0.0
  0
LINE
  5
126
100
AcDbEntity
  8
text
 62
1
100
AcDbLine
 10
-2.662406
 20
9.997347
 30
0.0
 11
-2.872851
 21
10.235847
 31
0.0
  0
LINE
  5
127
100
AcDbEntity
  8
text
 62
1
100
AcDbLine
 10
-2.662406
 20
9.997347
 30
0.0
 11
-2.837754
 21
10.263889
 31
0.0
  0
LINE
  5
128
100
AcDbEntity
  8
text
 62
1
100
AcDbLine
 10
-2.662406
 20
9.997347
 30
0.0
 11
-2.795656
 21
10.284944
 31
0.0
  0
LINE
  5
129
100
AcDbEntity
  8
text
 62
1
100
AcDbLine
 10
-2.662406
 20
9.997347
 30
0.0
 11
-2.753601
 21
10.306000
 31
0.0
  0
LINE
  5
12a
100
AcDbEntity
  8
text
 62
1
100
AcDbLine
 10
-2.662406
 20
9.997347
 30
0.0
 11
-2.704448
 21
10.313000
 31
0.0
  0
LINE
  5
12b
100
AcDbEntity
  8
text
 62
1
100
AcDbLine
 10
-2.662406
 20
9.997347
 30
0.0
 11
-2.662406
 21
10.320042
 31
0.0
  0
LINE
  5
12c
100
AcDbEntity
  8
text
 62
1
100
AcDbLine
 10
-2.662406
 20
9.997347
 30
0.0
 11
-2.620309
 21
10.313000
 31
0.0
  0
LINE
  5
12d
100
AcDbEntity
  8
text
 62
1
100
AcDbLine
 10
-2.662406
 20
9.997347
 30
0.0
 11
-2.571198
 21
10.306000
 31
0.0
  0
LINE
  5
12e
100
AcDbEntity
  8
text
 62
1
100
AcDbLine
 10
-2.662406
 20
9.997347
 30
0.0
 11
-2.529101
 21
10.284944
 31
0.0
  0
LINE
  5
12f
100
AcDbEntity
  8
text
 62
1
100
AcDbLine
 10
-2.662406
 20
9.997347
 30
0.0
 11
-2.487004
 21
10.263889
 31
0.0
  0
LINE
  5
130
100
AcDbEntity
  8
text
 62
1
100
AcDbLine
 10
-2.662406
 20
9.997347
 30
0.0
 11
-2.451948
 21
10.235847
 31
0.0
  0
LINE
  5
131
100
AcDbEntity
  8
text
 62
1
100
AcDbLine
 10
-2.662406
 20
9.997347
 30
0.0
 11
-2.416851
 21
10.200792
 31
0.0
  0
LINE
  5
132
100
AcDbEntity
  8
text
 62
1
100
AcDbLine
 10
-2.662406
 20
9.997347
 30
0.0
 11
-2.388809
 21
10.165694
 31
0.0
  0
LINE
  5
133
100
AcDbEntity
  8
text
 62
1
100
AcDbLine
 10
-2.662406
 20
9.997347
 30
0.0
 11
-2.367754
 21
10.123597
 31
0.0
  0
LINE
  5
134
100
AcDbEntity
  8
text
 62
1
100
AcDbLine
 10
-2.662406
 20
9.997347
 30
0.0
 11
-2.353698
 21
10.074500
 31
0.0
  0
LINE
  5
135
100
AcDbEntity
  8
text
 62
1
100
AcDbLine
 10
-2.662406
 20
9.997347
 30
0.0
 11
-2.346698
 21
10.032389
 31
0.0
  0
LINE
  5
136
100
AcDbEntity
  8
text
 62
1
100
AcDbLine
 10
-2.662406
 20
9.997347
 30
0.0
 11
-2.346698
 21
9.990292
 31
0.0
  0
LINE
  5
137
100
AcDbEntity
  8
text
 62
1
100
AcDbLine
 10
-2.662406
 20
9.997347
 30
0.0
 11
-2.346698
 21
9.948250
 31
0.0
  0
LINE
  5
138
100
AcDbEntity
  8
text
 62
1
100
AcDbLine
 10
-2.662406
 20
9.997347
 30
0.0
 11
-2.360754
 21
9.899153
 31
0.0
  0
LINE
  5
139
100
AcDbEntity
  8
text
 62
1
100
AcDbLine
 10
-2.662406
 20
9.997347
 30
0.0
 11
-2.374754
 21
9.857042
 31
0.0
  0
LINE
  5
13a
100
AcDbEntity
  8
text
 62
1
100
AcDbLine
 10
-2.662406
 20
9.997347
 30
0.0
 11
-2.402795
 21
9.814944
 31
0.0
  0
LINE
  5
13b
100
AcDbEntity
  8
text
 62
1
100
AcDbLine
 10
-2.662406
 20
9.997347
 30
0.0
 11
-2.430906
 21
9.779847
 31
0.0
  0
LINE
  5
13c
100
AcDbEntity
  8
text
 62
1
100
AcDbLine
 10
-2.662406
 20
9.997347
 30
0.0
 11
-2.465948
 21
9.744792
 31
0.0
  0
LINE
  5
13d
100
AcDbEntity
  8
text
 62
1
100
AcDbLine
 10
-2.662406
 20
9.997347
 30
0.0
 11
-2.501059
 21
9.723750
 31
0.0
  0
SPLINE
  5
13e
100
AcDbEntity
  8
text
 62
1
100
AcDbSpline
 70
0
 71
3
 72
19
 73
15
 74
13
 40
0.000000
 40
0.000000
 40
0.000000
 40
0.000000
 40
0.062845
 40
0.120074
 40
0.182949
 40
0.245779
 40
0.302976
 40
0.365816
 40
0.428650
 40
0.485850
 40
0.548681
 40
0.611557
 40
0.668788
 40
0.731627
 40
0.731627
 40
0.731627
 40
0.731627
 10
1.340596
 20
6.399128
 30
0.0
 10
1.343084
 20
6.420482
 30
0.0
 10
1.347839
 20
6.461282
 30
0.0
 10
1.394985
 20
6.507057
 30
0.0
 10
1.456760
 20
6.519669
 30
0.0
 10
1.519015
 20
6.507058
 30
0.0
 10
1.564740
 20
6.461266
 30
0.0
 10
1.577344
 20
6.399129
 30
0.0
 10
1.564738
 20
6.336993
 30
0.0
 10
1.519016
 20
6.291201
 30
0.0
 10
1.456760
 20
6.278584
 30
0.0
 10
1.394984
 20
6.291202
 30
0.0
 10
1.347841
 20
6.336978
 30
0.0
 10
1.343085
 20
6.377776
 30
0.0
 10
1.340596
 20
6.399128
 30
0.0
 11
1.340596
 21
6.399128
 31
0.0
 11
1.355235
 21
6.460243
 31
0.0
 11
1.395711
 21
6.500702
 31
0.0
 11
1.456860
 21
6.515336
 31
0.0
 11
1.517961
 21
6.500702
 31
0.0
 11
1.558393
 21
6.460243
 31
0.0
 11
1.573012
 21
6.399128
 31
0.0
 11
1.558393
 21
6.338018
 31
0.0
 11
1.517961
 21
6.297557
 31
0.0
 11
1.456860
 21
6.282919
 31
0.0
 11
1.395711
 21
6.297557
 31
0.0
 11
1.355235
 21
6.338018
 31
0.0
 11
1.340596
 21
6.399128
 31
0.0
  0
LINE
  5
13f
100
AcDbEntity
  8
text
 62
1
100
AcDbLine
 10
-2.704448
 20
9.997347
 30
0.0
 11
-2.620309
 21
9.997347
 31
0.0
  0
LINE
  5
140
100
AcDbEntity
  8
text
 62
1
100
AcDbLine
 10
-2.662406
 20
9.955250
 30
0.0
 11
-2.662406
 21
10.039444
 31
0.0
  0
SPLINE
  5
141
100
AcDbEntity
  8
text
 62
1
100
AcDbSpline
 70
0
 71
3
 72
19
 73
15
 74
13
 40
0.000000
 40
0.000000
 40
0.000000
 40
0.000000
 40
0.056881
 40
0.108680
 40
0.165561
 40
0.222480
 40
0.274289
 40
0.331171
 40
0.388090
 40
0.439909
 40
0.496829
 40
0.553710
 40
0.605520
 40
0.662438
 40
0.662438
 40
0.662438
 40
0.662438
 10
-2.767601
 20
9.997347
 30
0.0
 10
-2.765347
 20
10.016674
 30
0.0
 10
-2.761041
 20
10.053601
 30
0.0
 10
-2.718390
 20
10.095037
 30
0.0
 10
-2.662469
 20
10.106468
 30
0.0
 10
-2.606105
 20
10.095043
 30
0.0
 10
-2.564667
 20
10.053606
 30
0.0
 10
-2.553227
 20
9.997335
 30
0.0
 10
-2.564662
 20
9.941058
 30
0.0
 10
-2.606099
 20
9.899597
 30
0.0
 10
-2.662469
 20
9.888170
 30
0.0
 10
-2.718396
 20
9.899603
 30
0.0
 10
-2.761047
 20
9.941064
 30
0.0
 10
-2.765349
 20
9.978007
 30
0.0
 10
-2.767601
 20
9.997347
 30
0.0
 11
-2.767601
 21
9.997347
 31
0.0
 11
-2.754350
 21
10.052663
 31
0.0
 11
-2.717722
 21
10.089291
 31
0.0
 11
-2.662406
 21
10.102542
 31
0.0
 11
-2.607051
 21
10.089291
 31
0.0
 11
-2.570409
 21
10.052663
 31
0.0
 11
-2.557156
 21
9.997347
 31
0.0
 11
-2.570409
 21
9.941992
 31
0.0
 11
-2.607051
 21
9.905350
 31
0.0
 11
-2.662406
 21
9.892097
 31
0.0
 11
-2.717722
 21
9.905350
 31
0.0
 11
-2.754350
 21
9.941992
 31
0.0
 11
-2.767601
 21
9.997347
 31
0.0
  0
LINE
  5
142
100
AcDbEntity
  8
text
 62
7
100
AcDbLine
 10
-2.654045
 20
9.995181
 30
0.0
 11
-2.654045
 21
9.995181
 31
0.0
  0
LINE
  5
143
100
AcDbEntity
  8
text
 62
1
100
AcDbLine
 10
1.729035
 20
7.107342
 30
0.0
 11
1.553687
 21
6.791634
 31
0.0
  0
LINE
  5
144
100
AcDbEntity
  8
text
 62
1
100
AcDbLine
 10
1.729035
 20
7.107342
 30
0.0
 11
1.406340
 21
6.945995
 31
0.0
  0
LINE
  5
145
100
AcDbEntity
  8
text
 62
1
100
AcDbLine
 10
1.729035
 20
7.107342
 30
0.0
 11
1.371285
 21
7.149440
 31
0.0
  0
LINE
  5
146
100
AcDbEntity
  8
text
 62
1
100
AcDbLine
 10
1.729035
 20
7.107342
 30
0.0
 11
1.455493
 21
7.338842
 31
0.0
  0
LINE
  5
147
100
AcDbEntity
  8
text
 62
1
100
AcDbLine
 10
1.729035
 20
7.107342
 30
0.0
 11
1.630840
 21
7.451092
 31
0.0
  0
LINE
  5
148
100
AcDbEntity
  8
text
 62
1
100
AcDbLine
 10
1.729035
 20
7.107342
 30
0.0
 11
1.827285
 21
7.451092
 31
0.0
  0
LINE
  5
149
100
AcDbEntity
  8
text
 62
1
100
AcDbLine
 10
1.729035
 20
7.107342
 30
0.0
 11
2.002632
 21
7.338842
 31
0.0
  0
LINE
  5
14a
100
AcDbEntity
  8
text
 62
1
100
AcDbLine
 10
1.729035
 20
7.107342
 30
0.0
 11
2.086840
 21
7.149440
 31
0.0
  0
LINE
  5
14b
100
AcDbEntity
  8
text
 62
1
100
AcDbLine
 10
1.729035
 20
7.107342
 30
0.0
 11
2.051743
 21
6.945995
 31
0.0
  0
LINE
  5
14c
100
AcDbEntity
  8
text
 62
1
100
AcDbLine
 10
1.729035
 20
7.107342
 30
0.0
 11
1.911437
 21
6.791634
 31
0.0
  0
LINE
  5
14d
100
AcDbEntity
  8
text
 62
1
100
AcDbLine
 10
1.729035
 20
7.107342
 30
0.0
 11
1.574743
 21
6.833745
 31
0.0
  0
LINE
  5
14e
100
AcDbEntity
  8
text
 62
1
100
AcDbLine
 10
1.729035
 20
7.107342
 30
0.0
 11
1.532646
 21
6.854787
 31
0.0
  0
LINE
  5
14f
100
AcDbEntity
  8
text
 62
1
100
AcDbLine
 10
1.729035
 20
7.107342
 30
0.0
 11
1.497535
 21
6.889842
 31
0.0
  0
LINE
  5
150
100
AcDbEntity
  8
text
 62
1
100
AcDbLine
 10
1.729035
 20
7.107342
 30
0.0
 11
1.469493
 21
6.924940
 31
0.0
  0
LINE
  5
151
100
AcDbEntity
  8
text
 62
1
100
AcDbLine
 10
1.729035
 20
7.107342
 30
0.0
 11
1.441437
 21
6.967037
 31
0.0
  0
LINE
  5
152
100
AcDbEntity
  8
text
 62
1
100
AcDbLine
 10
1.729035
 20
7.107342
 30
0.0
 11
1.427382
 21
7.009148
 31
0.0
  0
LINE
  5
153
100
AcDbEntity
  8
text
 62
1
100
AcDbLine
 10
1.729035
 20
7.107342
 30
0.0
 11
1.413396
 21
7.058245
 31
0.0
  0
LINE
  5
154
100
AcDbEntity
  8
text
 62
1
100
AcDbLine
 10
1.729035
 20
7.107342
 30
0.0
 11
1.413396
 21
7.100287
 31
0.0
  0
LINE
  5
155
100
AcDbEntity
  8
text
 62
1
100
AcDbLine
 10
1.729035
 20
7.107342
 30
0.0
 11
1.413396
 21
7.142384
 31
0.0
  0
LINE
  5
156
100
AcDbEntity
  8
text
 62
1
100
AcDbLine
 10
1.729035
 20
7.107342
 30
0.0
 11
1.420396
 21
7.184495
 31
0.0
  0
LINE
  5
157
100
AcDbEntity
  8
text
 62
1
100
AcDbLine
 10
1.729035
 20
7.107342
 30
0.0
 11
1.434437
 21
7.233592
 31
0.0
  0
LINE
  5
158
100
AcDbEntity
  8
text
 62
1
100
AcDbLine
 10
1.729035
 20
7.107342
 30
0.0
 11
1.455493
 21
7.275690
 31
0.0
  0
LINE
  5
159
100
AcDbEntity
  8
text
 62
1
100
AcDbLine
 10
1.729035
 20
7.107342
 30
0.0
 11
1.483535
 21
7.310787
 31
0.0
  0
LINE
  5
15a
100
AcDbEntity
  8
text
 62
1
100
AcDbLine
 10
1.729035
 20
7.107342
 30
0.0
 11
1.518590
 21
7.345842
 31
0.0
  0
LINE
  5
15b
100
AcDbEntity
  8
text
 62
1
100
AcDbLine
 10
1.729035
 20
7.107342
 30
0.0
 11
1.553687
 21
7.373884
 31
0.0
  0
LINE
  5
15c
100
AcDbEntity
  8
text
 62
1
100
AcDbLine
 10
1.729035
 20
7.107342
 30
0.0
 11
1.595785
 21
7.394940
 31
0.0
  0
LINE
  5
15d
100
AcDbEntity
  8
text
 62
1
100
AcDbLine
 10
1.729035
 20
7.107342
 30
0.0
 11
1.637840
 21
7.415995
 31
0.0
  0
LINE
  5
15e
100
AcDbEntity
  8
text
 62
1
100
AcDbLine
 10
1.729035
 20
7.107342
 30
0.0
 11
1.686993
 21
7.422995
 31
0.0
  0
LINE
  5
15f
100
AcDbEntity
  8
text
 62
1
100
AcDbLine
 10
1.729035
 20
7.107342
 30
0.0
 11
1.729035
 21
7.430037
 31
0.0
  0
LINE
  5
160
100
AcDbEntity
  8
text
 62
1
100
AcDbLine
 10
1.729035
 20
7.107342
 30
0.0
 11
1.771132
 21
7.422995
 31
0.0
  0
LINE
  5
161
100
AcDbEntity
  8
text
 62
1
100
AcDbLine
 10
1.729035
 20
7.107342
 30
0.0
 11
1.820243
 21
7.415995
 31
0.0
  0
LINE
  5
162
100
AcDbEntity
  8
text
 62
1
100
AcDbLine
 10
1.729035
 20
7.107342
 30
0.0
 11
1.862340
 21
7.394940
 31
0.0
  0
LINE
  5
163
100
AcDbEntity
  8
text
 62
1
100
AcDbLine
 10
1.729035
 20
7.107342
 30
0.0
 11
1.904437
 21
7.373884
 31
0.0
  0
LINE
  5
164
100
AcDbEntity
  8
text
 62
1
100
AcDbLine
 10
1.729035
 20
7.107342
 30
0.0
 11
1.939493
 21
7.345842
 31
0.0
  0
LINE
  5
165
100
AcDbEntity
  8
text
 62
1
100
AcDbLine
 10
1.729035
 20
7.107342
 30
0.0
 11
1.974590
 21
7.310787
 31
0.0
  0
LINE
  5
166
100
AcDbEntity
  8
text
 62
1
100
AcDbLine
 10
1.729035
 20
7.107342
 30
0.0
 11
2.002632
 21
7.275690
 31
0.0
  0
LINE
  5
167
100
AcDbEntity
  8
text
 62
1
100
AcDbLine
 10
1.729035
 20
7.107342
 30
0.0
 11
2.023687
 21
7.233592
 31
0.0
  0
LINE
  5
168
100
AcDbEntity
  8
text
 62
1
100
AcDbLine
 10
1.729035
 20
7.107342
 30
0.0
 11
2.037743
 21
7.184495
 31
0.0
  0
LINE
  5
169
100
AcDbEntity
  8
text
 62
1
100
AcDbLine
 10
1.729035
 20
7.107342
 30
0.0
 11
2.044743
 21
7.142384
 31
0.0
  0
LINE
  5
16a
100
AcDbEntity
  8
text
 62
1
100
AcDbLine
 10
1.729035
 20
7.107342
 30
0.0
 11
2.044743
 21
7.100287
 31
0.0
  0
LINE
  5
16b
100
AcDbEntity
  8
text
 62
1
100
AcDbLine
 10
1.729035
 20
7.107342
 30
0.0
 11
2.044743
 21
7.058245
 31
0.0
  0
LINE
  5
16c
100
AcDbEntity
  8
text
 62
1
100
AcDbLine
 10
1.729035
 20
7.107342
 30
0.0
 11
2.030687
 21
7.009148
 31
0.0
  0
LINE
  5
16d
100
AcDbEntity
  8
text
 62
1
100
AcDbLine
 10
1.729035
 20
7.107342
 30
0.0
 11
2.016687
 21
6.967037
 31
0.0
  0
LINE
  5
16e
100
AcDbEntity
  8
text
 62
1
100
AcDbLine
 10
1.729035
 20
7.107342
 30
0.0
 11
1.988646
 21
6.924940
 31
0.0
  0
LINE
  5
16f
100
AcDbEntity
  8
text
 62
1
100
AcDbLine
 10
1.729035
 20
7.107342
 30
0.0
 11
1.960535
 21
6.889842
 31
0.0
  0
LINE
  5
170
100
AcDbEntity
  8
text
 62
1
100
AcDbLine
 10
1.729035
 20
7.107342
 30
0.0
 11
1.925493
 21
6.854787
 31
0.0
  0
LINE
  5
171
100
AcDbEntity
  8
text
 62
1
100
AcDbLine
 10
1.729035
 20
7.107342
 30
0.0
 11
1.890382
 21
6.833745
 31
0.0
  0
SPLINE
  5
172
100
AcDbEntity
  8
text
 62
7
100
AcDbSpline
 70
0
 71
3
 72
19
 73
15
 74
13
 40
0.000000
 40
0.000000
 40
0.000000
 40
0.000000
 40
0.004461
 40
0.009016
 40
0.013919
 40
0.018821
 40
0.023376
 40
0.027838
 40
0.032333
 40
0.036893
 40
0.041795
 40
0.046697
 40
0.051257
 40
0.055753
 40
0.055753
 40
0.055753
 40
0.055753
 10
-2.654045
 20
9.995181
 30
0.0
 10
-2.654319
 20
9.993677
 30
0.0
 10
-2.654871
 20
9.990638
 30
0.0
 10
-2.658693
 20
9.987463
 30
0.0
 10
-2.663479
 20
9.986317
 30
0.0
 10
-2.668327
 20
9.987463
 30
0.0
 10
-2.671980
 20
9.990638
 30
0.0
 10
-2.673405
 20
9.995191
 30
0.0
 10
-2.671987
 20
9.999751
 30
0.0
 10
-2.668330
 20
10.002943
 30
0.0
 10
-2.663479
 20
10.004084
 30
0.0
 10
-2.658690
 20
10.002943
 30
0.0
 10
-2.654863
 20
9.999751
 30
0.0
 10
-2.654317
 20
9.996697
 30
0.0
 10
-2.654045
 20
9.995181
 30
0.0
 11
-2.654045
 21
9.995181
 31
0.0
 11
-2.655336
 21
9.990910
 31
0.0
 11
-2.658726
 21
9.987868
 31
0.0
 11
-2.663490
 21
9.986708
 31
0.0
 11
-2.668253
 21
9.987868
 31
0.0
 11
-2.671643
 21
9.990910
 31
0.0
 11
-2.672934
 21
9.995181
 31
0.0
 11
-2.671643
 21
9.999487
 31
0.0
 11
-2.668253
 21
10.002537
 31
0.0
 11
-2.663490
 21
10.003694
 31
0.0
 11
-2.658726
 21
10.002537
 31
0.0
 11
-2.655336
 21
9.999487
 31
0.0
 11
-2.654045
 21
9.995181
 31
0.0
  0
LINE
  5
173
100
AcDbEntity
  8
text
 62
1
100
AcDbLine
 10
1.686993
 20
7.107342
 30
0.0
 11
1.771132
 21
7.107342
 31
0.0
  0
LINE
  5
174
100
AcDbEntity
  8
text
 62
1
100
AcDbLine
 10
1.729035
 20
7.065245
 30
0.0
 11
1.729035
 21
7.149440
 31
0.0
  0
SPLINE
  5
175
100
AcDbEntity
  8
text
 62
1
100
AcDbSpline
 70
0
 71
3
 72
19
 73
15
 74
13
 40
0.000000
 40
0.000000
 40
0.000000
 40
0.000000
 40
0.056881
 40
0.108680
 40
0.165561
 40
0.222480
 40
0.274289
 40
0.331171
 40
0.388090
 40
0.439909
 40
0.496829
 40
0.553710
 40
0.605520
 40
0.662438
 40
0.662438
 40
0.662438
 40
0.662438
 10
1.623840
 20
7.107342
 30
0.0
 10
1.626094
 20
7.126669
 30
0.0
 10
1.630400
 20
7.163596
 30
0.0
 10
1.673051
 20
7.205032
 30
0.0
 10
1.728972
 20
7.216463
 30
0.0
 10
1.785336
 20
7.205038
 30
0.0
 10
1.826774
 20
7.163601
 30
0.0
 10
1.838214
 20
7.107330
 30
0.0
 10
1.826779
 20
7.051053
 30
0.0
 10
1.785342
 20
7.009592
 30
0.0
 10
1.728972
 20
6.998166
 30
0.0
 10
1.673045
 20
7.009598
 30
0.0
 10
1.630394
 20
7.051059
 30
0.0
 10
1.626092
 20
7.088003
 30
0.0
 10
1.623840
 20
7.107342
 30
0.0
 11
1.623840
 21
7.107342
 31
0.0
 11
1.637091
 21
7.162658
 31
0.0
 11
1.673719
 21
7.199286
 31
0.0
 11
1.729035
 21
7.212537
 31
0.0
 11
1.784389
 21
7.199286
 31
0.0
 11
1.821031
 21
7.162658
 31
0.0
 11
1.834285
 21
7.107342
 31
0.0
 11
1.821031
 21
7.051987
 31
0.0
 11
1.784389
 21
7.015345
 31
0.0
 11
1.729035
 21
7.002092
 31
0.0
 11
1.673719
 21
7.015345
 31
0.0
 11
1.637091
 21
7.051987
 31
0.0
 11
1.623840
 21
7.107342
 31
0.0
  0
LINE
  5
176
100
AcDbEntity
  8
text
 62
7
100
AcDbLine
 10
1.737396
 20
7.105176
 30
0.0
 11
1.737396
 21
7.105176
 31
0.0
  0
LINE
  5
177
100
AcDbEntity
  8
text
 62
1
100
AcDbLine
 10
1.733559
 20
9.404586
 30
0.0
 11
1.558212
 21
9.088878
 31
0.0
  0
LINE
  5
178
100
AcDbEntity
  8
text
 62
1
100
AcDbLine
 10
1.733559
 20
9.404586
 30
0.0
 11
1.410865
 21
9.243239
 31
0.0
  0
LINE
  5
179
100
AcDbEntity
  8
text
 62
1
100
AcDbLine
 10
1.733559
 20
9.404586
 30
0.0
 11
1.375809
 21
9.446684
 31
0.0
  0
LINE
  5
17a
100
AcDbEntity
  8
text
 62
1
100
AcDbLine
 10
1.733559
 20
9.404586
 30
0.0
 11
1.460018
 21
9.636086
 31
0.0
  0
LINE
  5
17b
100
AcDbEntity
  8
text
 62
1
100
AcDbLine
 10
1.733559
 20
9.404586
 30
0.0
 11
1.635365
 21
9.748336
 31
0.0
  0
LINE
  5
17c
100
AcDbEntity
  8
text
 62
1
100
AcDbLine
 10
1.733559
 20
9.404586
 30
0.0
 11
1.831809
 21
9.748336
 31
0.0
  0
LINE
  5
17d
100
AcDbEntity
  8
text
 62
1
100
AcDbLine
 10
1.733559
 20
9.404586
 30
0.0
 11
2.007157
 21
9.636086
 31
0.0
  0
LINE
  5
17e
100
AcDbEntity
  8
text
 62
1
100
AcDbLine
 10
1.733559
 20
9.404586
 30
0.0
 11
2.091365
 21
9.446684
 31
0.0
  0
LINE
  5
17f
100
AcDbEntity
  8
text
 62
1
100
AcDbLine
 10
1.733559
 20
9.404586
 30
0.0
 11
2.056268
 21
9.243239
 31
0.0
  0
LINE
  5
180
100
AcDbEntity
  8
text
 62
1
100
AcDbLine
 10
1.733559
 20
9.404586
 30
0.0
 11
1.915962
 21
9.088878
 31
0.0
  0
LINE
  5
181
100
AcDbEntity
  8
text
 62
1
100
AcDbLine
 10
1.733559
 20
9.404586
 30
0.0
 11
1.579268
 21
9.130989
 31
0.0
  0
LINE
  5
182
100
AcDbEntity
  8
text
 62
1
100
AcDbLine
 10
1.733559
 20
9.404586
 30
0.0
 11
1.537171
 21
9.152031
 31
0.0
  0
LINE
  5
183
100
AcDbEntity
  8
text
 62
1
100
AcDbLine
 10
1.733559
 20
9.404586
 30
0.0
 11
1.502059
 21
9.187086
 31
0.0
  0
LINE
  5
184
100
AcDbEntity
  8
text
 62
1
100
AcDbLine
 10
1.733559
 20
9.404586
 30
0.0
 11
1.474018
 21
9.222184
 31
0.0
  0
LINE
  5
185
100
AcDbEntity
  8
text
 62
1
100
AcDbLine
 10
1.733559
 20
9.404586
 30
0.0
 11
1.445962
 21
9.264281
 31
0.0
  0
LINE
  5
186
100
AcDbEntity
  8
text
 62
1
100
AcDbLine
 10
1.733559
 20
9.404586
 30
0.0
 11
1.431907
 21
9.306392
 31
0.0
  0
LINE
  5
187
100
AcDbEntity
  8
text
 62
1
100
AcDbLine
 10
1.733559
 20
9.404586
 30
0.0
 11
1.417921
 21
9.355489
 31
0.0
  0
LINE
  5
188
100
AcDbEntity
  8
text
 62
1
100
AcDbLine
 10
1.733559
 20
9.404586
 30
0.0
 11
1.417921
 21
9.397531
 31
0.0
  0
LINE
  5
189
100
AcDbEntity
  8
text
 62
1
100
AcDbLine
 10
1.733559
 20
9.404586
 30
0.0
 11
1.417921
 21
9.439628
 31
0.0
  0
LINE
  5
18a
100
AcDbEntity
  8
text
 62
1
100
AcDbLine
 10
1.733559
 20
9.404586
 30
0.0
 11
1.424921
 21
9.481739
 31
0.0
  0
LINE
  5
18b
100
AcDbEntity
  8
text
 62
1
100
AcDbLine
 10
1.733559
 20
9.404586
 30
0.0
 11
1.438962
 21
9.530836
 31
0.0
  0
LINE
  5
18c
100
AcDbEntity
  8
text
 62
1
100
AcDbLine
 10
1.733559
 20
9.404586
 30
0.0
 11
1.460018
 21
9.572934
 31
0.0
  0
LINE
  5
18d
100
AcDbEntity
  8
text
 62
1
100
AcDbLine
 10
1.733559
 20
9.404586
 30
0.0
 11
1.488059
 21
9.608031
 31
0.0
  0
LINE
  5
18e
100
AcDbEntity
  8
text
 62
1
100
AcDbLine
 10
1.733559
 20
9.404586
 30
0.0
 11
1.523115
 21
9.643086
 31
0.0
  0
LINE
  5
18f
100
AcDbEntity
  8
text
 62
1
100
AcDbLine
 10
1.733559
 20
9.404586
 30
0.0
 11
1.558212
 21
9.671128
 31
0.0
  0
LINE
  5
190
100
AcDbEntity
  8
text
 62
1
100
AcDbLine
 10
1.733559
 20
9.404586
 30
0.0
 11
1.600309
 21
9.692184
 31
0.0
  0
LINE
  5
191
100
AcDbEntity
  8
text
 62
1
100
AcDbLine
 10
1.733559
 20
9.404586
 30
0.0
 11
1.642365
 21
9.713239
 31
0.0
  0
LINE
  5
192
100
AcDbEntity
  8
text
 62
1
100
AcDbLine
 10
1.733559
 20
9.404586
 30
0.0
 11
1.691518
 21
9.720239
 31
0.0
  0
LINE
  5
193
100
AcDbEntity
  8
text
 62
1
100
AcDbLine
 10
1.733559
 20
9.404586
 30
0.0
 11
1.733559
 21
9.727281
 31
0.0
  0
LINE
  5
194
100
AcDbEntity
  8
text
 62
1
100
AcDbLine
 10
1.733559
 20
9.404586
 30
0.0
 11
1.775657
 21
9.720239
 31
0.0
  0
LINE
  5
195
100
AcDbEntity
  8
text
 62
1
100
AcDbLine
 10
1.733559
 20
9.404586
 30
0.0
 11
1.824768
 21
9.713239
 31
0.0
  0
LINE
  5
196
100
AcDbEntity
  8
text
 62
1
100
AcDbLine
 10
1.733559
 20
9.404586
 30
0.0
 11
1.866865
 21
9.692184
 31
0.0
  0
LINE
  5
197
100
AcDbEntity
  8
text
 62
1
100
AcDbLine
 10
1.733559
 20
9.404586
 30
0.0
 11
1.908962
 21
9.671128
 31
0.0
  0
LINE
  5
198
100
AcDbEntity
  8
text
 62
1
100
AcDbLine
 10
1.733559
 20
9.404586
 30
0.0
 11
1.944018
 21
9.643086
 31
0.0
  0
LINE
  5
199
100
AcDbEntity
  8
text
 62
1
100
AcDbLine
 10
1.733559
 20
9.404586
 30
0.0
 11
1.979115
 21
9.608031
 31
0.0
  0
LINE
  5
19a
100
AcDbEntity
  8
text
 62
1
100
AcDbLine
 10
1.733559
 20
9.404586
 30
0.0
 11
2.007157
 21
9.572934
 31
0.0
  0
LINE
  5
19b
100
AcDbEntity
  8
text
 62
1
100
AcDbLine
 10
1.733559
 20
9.404586
 30
0.0
 11
2.028212
 21
9.530836
 31
0.0
  0
LINE
  5
19c
100
AcDbEntity
  8
text
 62
1
100
AcDbLine
 10
1.733559
 20
9.404586
 30
0.0
 11
2.042268
 21
9.481739
 31
0.0
  0
LINE
  5
19d
100
AcDbEntity
  8
text
 62
1
100
AcDbLine
 10
1.733559
 20
9.404586
 30
0.0
 11
2.049268
 21
9.439628
 31
0.0
  0
LINE
  5
19e
100
AcDbEntity
  8
text
 62
1
100
AcDbLine
 10
1.733559
 20
9.404586
 30
0.0
 11
2.049268
 21
9.397531
 31
0.0
  0
LINE
  5
19f
100
AcDbEntity
  8
text
 62
1
100
AcDbLine
 10
1.733559
 20
9.404586
 30
0.0
 11
2.049268
 21
9.355489
 31
0.0
  0
LINE
  5
1a0
100
AcDbEntity
  8
text
 62
1
100
AcDbLine
 10
1.733559
 20
9.404586
 30
0.0
 11
2.035212
 21
9.306392
 31
0.0
  0
LINE
  5
1a1
100
AcDbEntity
  8
text
 62
1
100
AcDbLine
 10
1.733559
 20
9.404586
 30
0.0
 11
2.021212
 21
9.264281
 31
0.0
  0
LINE
  5
1a2
100
AcDbEntity
  8
text
 62
1
100
AcDbLine
 10
1.733559
 20
9.404586
 30
0.0
 11
1.993171
 21
9.222184
 31
0.0
  0
LINE
  5
1a3
100
AcDbEntity
  8
text
 62
1
100
AcDbLine
 10
1.733559
 20
9.404586
 30
0.0
 11
1.965059
 21
9.187086
 31
0.0
  0
LINE
  5
1a4
100
AcDbEntity
  8
text
 62
1
100
AcDbLine
 10
1.733559
 20
9.404586
 30
0.0
 11
1.930018
 21
9.152031
 31
0.0
  0
LINE
  5
1a5
100
AcDbEntity
  8
text
 62
1
100
AcDbLine
 10
1.733559
 20
9.404586
 30
0.0
 11
1.894907
 21
9.130989
 31
0.0
  0
SPLINE
  5
1a6
100
AcDbEntity
  8
text
 62
7
100
AcDbSpline
 70
0
 71
3
 72
19
 73
15
 74
13
 40
0.000000
 40
0.000000
 40
0.000000
 40
0.000000
 40
0.004461
 40
0.009016
 40
0.013919
 40
0.018821
 40
0.023376
 40
0.027838
 40
0.032333
 40
0.036893
 40
0.041795
 40
0.046697
 40
0.051257
 40
0.055753
 40
0.055753
 40
0.055753
 40
0.055753
 10
1.737396
 20
7.105176
 30
0.0
 10
1.737122
 20
7.103672
 30
0.0
 10
1.736570
 20
7.100633
 30
0.0
 10
1.732748
 20
7.097458
 30
0.0
 10
1.727962
 20
7.096312
 30
0.0
 10
1.723114
 20
7.097458
 30
0.0
 10
1.719461
 20
7.100633
 30
0.0
 10
1.718035
 20
7.105186
 30
0.0
 10
1.719454
 20
7.109746
 30
0.0
 10
1.723111
 20
7.112938
 30
0.0
 10
1.727962
 20
7.114079
 30
0.0
 10
1.732751
 20
7.112938
 30
0.0
 10
1.736578
 20
7.109746
 30
0.0
 10
1.737124
 20
7.106692
 30
0.0
 10
1.737396
 20
7.105176
 30
0.0
 11
1.737396
 21
7.105176
 31
0.0
 11
1.736105
 21
7.100905
 31
0.0
 11
1.732715
 21
7.097863
 31
0.0
 11
1.727951
 21
7.096703
 31
0.0
 11
1.723188
 21
7.097863
 31
0.0
 11
1.719798
 21
7.100905
 31
0.0
 11
1.718507
 21
7.105176
 31
0.0
 11
1.719798
 21
7.109482
 31
0.0
 11
1.723188
 21
7.112532
 31
0.0
 11
1.727951
 21
7.113690
 31
0.0
 11
1.732715
 21
7.112532
 31
0.0
 11
1.736105
 21
7.109482
 31
0.0
 11
1.737396
 21
7.105176
 31
0.0
  0
LINE
  5
1a7
100
AcDbEntity
  8
text
 62
1
100
AcDbLine
 10
1.691518
 20
9.404586
 30
0.0
 11
1.775657
 21
9.404586
 31
0.0
  0
LINE
  5
1a8
100
AcDbEntity
  8
text
 62
1
100
AcDbLine
 10
1.733559
 20
9.362489
 30
0.0
 11
1.733559
 21
9.446684
 31
0.0
  0
SPLINE
  5
1a9
100
AcDbEntity
  8
text
 62
1
100
AcDbSpline
 70
0
 71
3
 72
19
 73
15
 74
13
 40
0.000000
 40
0.000000
 40
0.000000
 40
0.000000
 40
0.056881
 40
0.108680
 40
0.165561
 40
0.222480
 40
0.274289
 40
0.331171
 40
0.388090
 40
0.439909
 40
0.496829
 40
0.553710
 40
0.605520
 40
0.662438
 40
0.662438
 40
0.662438
 40
0.662438
 10
1.628365
 20
9.404586
 30
0.0
 10
1.630619
 20
9.423913
 30
0.0
 10
1.634925
 20
9.460840
 30
0.0
 10
1.677576
 20
9.502277
 30
0.0
 10
1.733497
 20
9.513708
 30
0.0
 10
1.789861
 20
9.502282
 30
0.0
 10
1.831299
 20
9.460846
 30
0.0
 10
1.842739
 20
9.404574
 30
0.0
 10
1.831304
 20
9.348298
 30
0.0
 10
1.789867
 20
9.306836
 30
0.0
 10
1.733497
 20
9.295410
 30
0.0
 10
1.677570
 20
9.306842
 30
0.0
 10
1.634919
 20
9.348303
 30
0.0
 10
1.630617
 20
9.385247
 30
0.0
 10
1.628365
 20
9.404586
 30
0.0
 11
1.628365
 21
9.404586
 31
0.0
 11
1.641616
 21
9.459902
 31
0.0
 11
1.678244
 21
9.496530
 31
0.0
 11
1.733559
 21
9.509781
 31
0.0
 11
1.788914
 21
9.496530
 31
0.0
 11
1.825556
 21
9.459902
 31
0.0
 11
1.838809
 21
9.404586
 31
0.0
 11
1.825556
 21
9.349232
 31
0.0
 11
1.788914
 21
9.312590
 31
0.0
 11
1.733559
 21
9.299336
 31
0.0
 11
1.678244
 21
9.312590
 31
0.0
 11
1.641616
 21
9.349232
 31
0.0
 11
1.628365
 21
9.404586
 31
0.0
  0
LINE
  5
1aa
100
AcDbEntity
  8
text
 62
7
100
AcDbLine
 10
1.741921
 20
9.402420
 30
0.0
 11
1.741921
 21
9.402420
 31
0.0
  0
SPLINE
  5
1ab
100
AcDbEntity
  8
text
 62
7
100
AcDbSpline
 70
0
 71
3
 72
19
 73
15
 74
13
 40
0.000000
 40
0.000000
 40
0.000000
 40
0.000000
 40
0.004461
 40
0.009016
 40
0.013919
 40
0.018821
 40
0.023376
 40
0.027838
 40
0.032333
 40
0.036893
 40
0.041795
 40
0.046697
 40
0.051257
 40
0.055753
 40
0.055753
 40
0.055753
 40
0.055753
 10
1.741921
 20
9.402420
 30
0.0
 10
1.741647
 20
9.400916
 30
0.0
 10
1.741095
 20
9.397877
 30
0.0
 10
1.737273
 20
9.394703
 30
0.0
 10
1.732487
 20
9.393556
 30
0.0
 10
1.727639
 20
9.394702
 30
0.0
 10
1.723986
 20
9.397877
 30
0.0
 10
1.722560
 20
9.402430
 30
0.0
 10
1.723979
 20
9.406990
 30
0.0
 10
1.727636
 20
9.410182
 30
0.0
 10
1.732487
 20
9.411323
 30
0.0
 10
1.737276
 20
9.410182
 30
0.0
 10
1.741103
 20
9.406990
 30
0.0
 10
1.741649
 20
9.403936
 30
0.0
 10
1.741921
 20
9.402420
 30
0.0
 11
1.741921
 21
9.402420
 31
0.0
 11
1.740629
 21
9.398149
 31
0.0
 11
1.737240
 21
9.395107
 31
0.0
 11
1.732476
 21
9.393948
 31
0.0
 11
1.727713
 21
9.395107
 31
0.0
 11
1.724323
 21
9.398149
 31
0.0
 11
1.723032
 21
9.402420
 31
0.0
 11
1.724323
 21
9.406726
 31
0.0
 11
1.727713
 21
9.409776
 31
0.0
 11
1.732476
 21
9.410934
 31
0.0
 11
1.737240
 21
9.409776
 31
0.0
 11
1.740629
 21
9.406726
 31
0.0
 11
1.741921
 21
9.402420
 31
0.0
  0
LINE
  5
1ac
100
AcDbEntity
  8
text
 62
1
100
AcDbLine
 10
1.410374
 20
7.857395
 30
0.0
 11
1.503304
 21
7.857395
 31
0.0
  0
LINE
  5
1ad
100
AcDbEntity
  8
text
 62
1
100
AcDbLine
 10
1.456860
 20
7.810909
 30
0.0
 11
1.456860
 21
7.903895
 31
0.0
  0
LINE
  5
1ae
100
AcDbEntity
  8
text
 62
1
100
AcDbLine
 10
1.733559
 20
8.560142
 30
0.0
 11
1.558212
 21
8.244434
 31
0.0
  0
LINE
  5
1af
100
AcDbEntity
  8
text
 62
1
100
AcDbLine
 10
1.733559
 20
8.560142
 30
0.0
 11
1.410865
 21
8.398795
 31
0.0
  0
LINE
  5
1b0
100
AcDbEntity
  8
text
 62
1
100
AcDbLine
 10
1.733559
 20
8.560142
 30
0.0
 11
1.375809
 21
8.602239
 31
0.0
  0
LINE
  5
1b1
100
AcDbEntity
  8
text
 62
1
100
AcDbLine
 10
1.733559
 20
8.560142
 30
0.0
 11
1.460018
 21
8.791642
 31
0.0
  0
LINE
  5
1b2
100
AcDbEntity
  8
text
 62
1
100
AcDbLine
 10
1.733559
 20
8.560142
 30
0.0
 11
1.635365
 21
8.903892
 31
0.0
  0
LINE
  5
1b3
100
AcDbEntity
  8
text
 62
1
100
AcDbLine
 10
1.733559
 20
8.560142
 30
0.0
 11
1.831809
 21
8.903892
 31
0.0
  0
LINE
  5
1b4
100
AcDbEntity
  8
text
 62
1
100
AcDbLine
 10
1.733559
 20
8.560142
 30
0.0
 11
2.007157
 21
8.791642
 31
0.0
  0
LINE
  5
1b5
100
AcDbEntity
  8
text
 62
1
100
AcDbLine
 10
1.733559
 20
8.560142
 30
0.0
 11
2.091365
 21
8.602239
 31
0.0
  0
LINE
  5
1b6
100
AcDbEntity
  8
text
 62
1
100
AcDbLine
 10
1.733559
 20
8.560142
 30
0.0
 11
2.056268
 21
8.398795
 31
0.0
  0
LINE
  5
1b7
100
AcDbEntity
  8
text
 62
1
100
AcDbLine
 10
1.733559
 20
8.560142
 30
0.0
 11
1.915962
 21
8.244434
 31
0.0
  0
LINE
  5
1b8
100
AcDbEntity
  8
text
 62
1
100
AcDbLine
 10
1.733559
 20
8.560142
 30
0.0
 11
1.579268
 21
8.286545
 31
0.0
  0
LINE
  5
1b9
100
AcDbEntity
  8
text
 62
1
100
AcDbLine
 10
1.733559
 20
8.560142
 30
0.0
 11
1.537171
 21
8.307586
 31
0.0
  0
LINE
  5
1ba
100
AcDbEntity
  8
text
 62
1
100
AcDbLine
 10
1.733559
 20
8.560142
 30
0.0
 11
1.502059
 21
8.342642
 31
0.0
  0
LINE
  5
1bb
100
AcDbEntity
  8
text
 62
1
100
AcDbLine
 10
1.733559
 20
8.560142
 30
0.0
 11
1.474018
 21
8.377739
 31
0.0
  0
LINE
  5
1bc
100
AcDbEntity
  8
text
 62
1
100
AcDbLine
 10
1.733559
 20
8.560142
 30
0.0
 11
1.445962
 21
8.419836
 31
0.0
  0
LINE
  5
1bd
100
AcDbEntity
  8
text
 62
1
100
AcDbLine
 10
1.733559
 20
8.560142
 30
0.0
 11
1.431907
 21
8.461948
 31
0.0
  0
LINE
  5
1be
100
AcDbEntity
  8
text
 62
1
100
AcDbLine
 10
1.733559
 20
8.560142
 30
0.0
 11
1.417921
 21
8.511045
 31
0.0
  0
LINE
  5
1bf
100
AcDbEntity
  8
text
 62
1
100
AcDbLine
 10
1.733559
 20
8.560142
 30
0.0
 11
1.417921
 21
8.553086
 31
0.0
  0
LINE
  5
1c0
100
AcDbEntity
  8
text
 62
1
100
AcDbLine
 10
1.733559
 20
8.560142
 30
0.0
 11
1.417921
 21
8.595184
 31
0.0
  0
LINE
  5
1c1
100
AcDbEntity
  8
text
 62
1
100
AcDbLine
 10
1.733559
 20
8.560142
 30
0.0
 11
1.424921
 21
8.637295
 31
0.0
  0
LINE
  5
1c2
100
AcDbEntity
  8
text
 62
1
100
AcDbLine
 10
1.733559
 20
8.560142
 30
0.0
 11
1.438962
 21
8.686392
 31
0.0
  0
LINE
  5
1c3
100
AcDbEntity
  8
text
 62
1
100
AcDbLine
 10
1.733559
 20
8.560142
 30
0.0
 11
1.460018
 21
8.728489
 31
0.0
  0
LINE
  5
1c4
100
AcDbEntity
  8
text
 62
1
100
AcDbLine
 10
1.733559
 20
8.560142
 30
0.0
 11
1.488059
 21
8.763586
 31
0.0
  0
LINE
  5
1c5
100
AcDbEntity
  8
text
 62
1
100
AcDbLine
 10
1.733559
 20
8.560142
 30
0.0
 11
1.523115
 21
8.798642
 31
0.0
  0
LINE
  5
1c6
100
AcDbEntity
  8
text
 62
1
100
AcDbLine
 10
1.733559
 20
8.560142
 30
0.0
 11
1.558212
 21
8.826684
 31
0.0
  0
LINE
  5
1c7
100
AcDbEntity
  8
text
 62
1
100
AcDbLine
 10
1.733559
 20
8.560142
 30
0.0
 11
1.600309
 21
8.847739
 31
0.0
  0
LINE
  5
1c8
100
AcDbEntity
  8
text
 62
1
100
AcDbLine
 10
1.733559
 20
8.560142
 30
0.0
 11
1.642365
 21
8.868795
 31
0.0
  0
LINE
  5
1c9
100
AcDbEntity
  8
text
 62
1
100
AcDbLine
 10
1.733559
 20
8.560142
 30
0.0
 11
1.691518
 21
8.875795
 31
0.0
  0
LINE
  5
1ca
100
AcDbEntity
  8
text
 62
1
100
AcDbLine
 10
1.733559
 20
8.560142
 30
0.0
 11
1.733559
 21
8.882836
 31
0.0
  0
LINE
  5
1cb
100
AcDbEntity
  8
text
 62
1
100
AcDbLine
 10
1.733559
 20
8.560142
 30
0.0
 11
1.775657
 21
8.875795
 31
0.0
  0
LINE
  5
1cc
100
AcDbEntity
  8
text
 62
1
100
AcDbLine
 10
1.733559
 20
8.560142
 30
0.0
 11
1.824768
 21
8.868795
 31
0.0
  0
LINE
  5
1cd
100
AcDbEntity
  8
text
 62
1
100
AcDbLine
 10
1.733559
 20
8.560142
 30
0.0
 11
1.866865
 21
8.847739
 31
0.0
  0
LINE
  5
1ce
100
AcDbEntity
  8
text
 62
1
100
AcDbLine
 10
1.733559
 20
8.560142
 30
0.0
 11
1.908962
 21
8.826684
 31
0.0
  0
LINE
  5
1cf
100
AcDbEntity
  8
text
 62
1
100
AcDbLine
 10
1.733559
 20
8.560142
 30
0.0
 11
1.944018
 21
8.798642
 31
0.0
  0
LINE
  5
1d0
100
AcDbEntity
  8
text
 62
1
100
AcDbLine
 10
1.733559
 20
8.560142
 30
0.0
 11
1.979115
 21
8.763586
 31
0.0
  0
LINE
  5
1d1
100
AcDbEntity
  8
text
 62
1
100
AcDbLine
 10
1.733559
 20
8.560142
 30
0.0
 11
2.007157
 21
8.728489
 31
0.0
  0
LINE
  5
1d2
100
AcDbEntity
  8
text
 62
1
100
AcDbLine
 10
1.733559
 20
8.560142
 30
0.0
 11
2.028212
 21
8.686392
 31
0.0
  0
LINE
  5
1d3
100
AcDbEntity
  8
text
 62
1
100
AcDbLine
 10
1.733559
 20
8.560142
 30
0.0
 11
2.042268
 21
8.637295
 31
0.0
  0
LINE
  5
1d4
100
AcDbEntity
  8
text
 62
1
100
AcDbLine
 10
1.733559
 20
8.560142
 30
0.0
 11
2.049268
 21
8.595184
 31
0.0
  0
LINE
  5
1d5
100
AcDbEntity
  8
text
 62
1
100
AcDbLine
 10
1.733559
 20
8.560142
 30
0.0
 11
2.049268
 21
8.553086
 31
0.0
  0
LINE
  5
1d6
100
AcDbEntity
  8
text
 62
1
100
AcDbLine
 10
1.733559
 20
8.560142
 30
0.0
 11
2.049268
 21
8.511045
 31
0.0
  0
LINE
  5
1d7
100
AcDbEntity
  8
text
 62
1
100
AcDbLine
 10
1.733559
 20
8.560142
 30
0.0
 11
2.035212
 21
8.461948
 31
0.0
  0
LINE
  5
1d8
100
AcDbEntity
  8
text
 62
1
100
AcDbLine
 10
1.733559
 20
8.560142
 30
0.0
 11
2.021212
 21
8.419836
 31
0.0
  0
LINE
  5
1d9
100
AcDbEntity
  8
text
 62
1
100
AcDbLine
 10
1.733559
 20
8.560142
 30
0.0
 11
1.993171
 21
8.377739
 31
0.0
  0
LINE
  5
1da
100
AcDbEntity
  8
text
 62
1
100
AcDbLine
 10
1.733559
 20
8.560142
 30
0.0
 11
1.965059
 21
8.342642
 31
0.0
  0
LINE
  5
1db
100
AcDbEntity
  8
text
 62
1
100
AcDbLine
 10
1.733559
 20
8.560142
 30
0.0
 11
1.930018
 21
8.307586
 31
0.0
  0
LINE
  5
1dc
100
AcDbEntity
  8
text
 62
1
100
AcDbLine
 10
1.733559
 20
8.560142
 30
0.0
 11
1.894907
 21
8.286545
 31
0.0
  0
SPLINE
  5
1dd
100
AcDbEntity
  8
text
 62
1
100
AcDbSpline
 70
0
 71
3
 72
19
 73
15
 74
13
 40
0.000000
 40
0.000000
 40
0.000000
 40
0.000000
 40
0.062845
 40
0.120074
 40
0.182949
 40
0.245779
 40
0.302976
 40
0.365816
 40
0.428650
 40
0.485850
 40
0.548681
 40
0.611557
 40
0.668788
 40
0.731627
 40
0.731627
 40
0.731627
 40
0.731627
 10
1.340596
 20
7.857395
 30
0.0
 10
1.343084
 20
7.878749
 30
0.0
 10
1.347839
 20
7.919549
 30
0.0
 10
1.394985
 20
7.965325
 30
0.0
 10
1.456760
 20
7.977937
 30
0.0
 10
1.519015
 20
7.965325
 30
0.0
 10
1.564740
 20
7.919534
 30
0.0
 10
1.577344
 20
7.857397
 30
0.0
 10
1.564738
 20
7.795261
 30
0.0
 10
1.519016
 20
7.749469
 30
0.0
 10
1.456760
 20
7.736851
 30
0.0
 10
1.394984
 20
7.749469
 30
0.0
 10
1.347841
 20
7.795245
 30
0.0
 10
1.343085
 20
7.836044
 30
0.0
 10
1.340596
 20
7.857395
 30
0.0
 11
1.340596
 21
7.857395
 31
0.0
 11
1.355235
 21
7.918511
 31
0.0
 11
1.395711
 21
7.958969
 31
0.0
 11
1.456860
 21
7.973604
 31
0.0
 11
1.517961
 21
7.958969
 31
0.0
 11
1.558393
 21
7.918511
 31
0.0
 11
1.573012
 21
7.857395
 31
0.0
 11
1.558393
 21
7.796286
 31
0.0
 11
1.517961
 21
7.755824
 31
0.0
 11
1.456860
 21
7.741187
 31
0.0
 11
1.395711
 21
7.755824
 31
0.0
 11
1.355235
 21
7.796286
 31
0.0
 11
1.340596
 21
7.857395
 31
0.0
  0
LINE
  5
1de
100
AcDbEntity
  8
text
 62
1
100
AcDbLine
 10
1.691518
 20
8.560142
 30
0.0
 11
1.775657
 21
8.560142
 31
0.0
  0
LINE
  5
1df
100
AcDbEntity
  8
text
 62
1
100
AcDbLine
 10
1.733559
 20
8.518045
 30
0.0
 11
1.733559
 21
8.602239
 31
0.0
  0
SPLINE
  5
1e0
100
AcDbEntity
  8
text
 62
1
100
AcDbSpline
 70
0
 71
3
 72
19
 73
15
 74
13
 40
0.000000
 40
0.000000
 40
0.000000
 40
0.000000
 40
0.056881
 40
0.108680
 40
0.165561
 40
0.222480
 40
0.274289
 40
0.331171
 40
0.388090
 40
0.439909
 40
0.496829
 40
0.553710
 40
0.605520
 40
0.662438
 40
0.662438
 40
0.662438
 40
0.662438
 10
1.628365
 20
8.560142
 30
0.0
 10
1.630619
 20
8.579469
 30
0.0
 10
1.634925
 20
8.616396
 30
0.0
 10
1.677576
 20
8.657832
 30
0.0
 10
1.733497
 20
8.669263
 30
0.0
 10
1.789861
 20
8.657838
 30
0.0
 10
1.831299
 20
8.616401
 30
0.0
 10
1.842739
 20
8.560129
 30
0.0
 10
1.831304
 20
8.503853
 30
0.0
 10
1.789867
 20
8.462392
 30
0.0
 10
1.733497
 20
8.450965
 30
0.0
 10
1.677570
 20
8.462397
 30
0.0
 10
1.634919
 20
8.503859
 30
0.0
 10
1.630617
 20
8.540802
 30
0.0
 10
1.628365
 20
8.560142
 30
0.0
 11
1.628365
 21
8.560142
 31
0.0
 11
1.641616
 21
8.615458
 31
0.0
 11
1.678244
 21
8.652085
 31
0.0
 11
1.733559
 21
8.665336
 31
0.0
 11
1.788914
 21
8.652085
 31
0.0
 11
1.825556
 21
8.615458
 31
0.0
 11
1.838809
 21
8.560142
 31
0.0
 11
1.825556
 21
8.504787
 31
0.0
 11
1.788914
 21
8.468145
 31
0.0
 11
1.733559
 21
8.454892
 31
0.0
 11
1.678244
 21
8.468145
 31
0.0
 11
1.641616
 21
8.504787
 31
0.0
 11
1.628365
 21
8.560142
 31
0.0
  0
LINE
  5
1e1
100
AcDbEntity
  8
text
 62
7
100
AcDbLine
 10
1.741921
 20
8.557975
 30
0.0
 11
1.741921
 21
8.557975
 31
0.0
  0
SPLINE
  5
1e2
100
AcDbEntity
  8
text
 62
7
100
AcDbSpline
 70
0
 71
3
 72
19
 73
15
 74
13
 40
0.000000
 40
0.000000
 40
0.000000
 40
0.000000
 40
0.004461
 40
0.009016
 40
0.013919
 40
0.018821
 40
0.023376
 40
0.027838
 40
0.032333
 40
0.036893
 40
0.041795
 40
0.046697
 40
0.051257
 40
0.055753
 40
0.055753
 40
0.055753
 40
0.055753
 10
1.741921
 20
8.557975
 30
0.0
 10
1.741647
 20
8.556472
 30
0.0
 10
1.741095
 20
8.553433
 30
0.0
 10
1.737273
 20
8.550258
 30
0.0
 10
1.732487
 20
8.549112
 30
0.0
 10
1.727639
 20
8.550258
 30
0.0
 10
1.723986
 20
8.553433
 30
0.0
 10
1.722560
 20
8.557986
 30
0.0
 10
1.723979
 20
8.562546
 30
0.0
 10
1.727636
 20
8.565738
 30
0.0
 10
1.732487
 20
8.566879
 30
0.0
 10
1.737276
 20
8.565738
 30
0.0
 10
1.741103
 20
8.562545
 30
0.0
 10
1.741649
 20
8.559491
 30
0.0
 10
1.741921
 20
8.557975
 30
0.0
 11
1.741921
 21
8.557975
 31
0.0
 11
1.740629
 21
8.553705
 31
0.0
 11
1.737240
 21
8.550663
 31
0.0
 11
1.732476
 21
8.549503
 31
0.0
 11
1.727713
 21
8.550663
 31
0.0
 11
1.724323
 21
8.553705
 31
0.0
 11
1.723032
 21
8.557975
 31
0.0
 11
1.724323
 21
8.562281
 31
0.0
 11
1.727713
 21
8.565331
 31
0.0
 11
1.732476
 21
8.566489
 31
0.0
 11
1.737240
 21
8.565331
 31
0.0
 11
1.740629
 21
8.562281
 31
0.0
 11
1.741921
 21
8.557975
 31
0.0
  0
ENDSEC
  0
SECTION
  2
OBJECTS
  0
DICTIONARY
  5
C
330
0
100
AcDbDictionary
  3
ACAD_GROUP
350
D
  3
ACAD_MLINESTYLE
350
17
  0
DICTIONARY
  5
D
330
C
100
AcDbDictionary
  0
DICTIONARY
  5
1A
330
C
100
AcDbDictionary
  0
DICTIONARY
  5
17
330
C
100
AcDbDictionary
  3
STANDARD
350
18
  0
DICTIONARY
  5
19
330
C
100
AcDbDictionary
  0
ENDSEC
  0
EOF
